# Blender 4.3.2
# www.blender.org
mtllib Low Poly Log[1].mtl
o Cylinder.001
v 1.640294 -0.000000 -0.851249
v 1.640294 -0.547172 -0.652095
v 1.640294 -0.838317 -0.147818
v 1.640294 -0.737203 0.425625
v 1.640294 -0.291144 0.799913
v 1.640294 0.291144 0.799913
v 1.640294 0.737203 0.425625
v 1.640293 0.838317 -0.147818
v 1.640294 0.547172 -0.652095
v -4.121215 -0.000000 -0.878419
v -3.970979 -0.000000 -0.990381
v 4.121215 0.000000 -0.836923
v 3.970979 0.000000 -0.990381
v -4.121215 -0.564637 -0.672908
v -3.970979 -0.636605 -0.758676
v 4.121215 -0.537963 -0.641120
v 3.970979 -0.636605 -0.758676
v -4.121215 -0.865074 -0.152536
v -3.970979 -0.975336 -0.171978
v 4.121215 -0.824208 -0.145330
v 3.970979 -0.975335 -0.171978
v -4.121215 -0.760733 0.439210
v -3.970979 -0.857696 0.495191
v 4.121215 -0.724796 0.418461
v 3.970979 -0.857695 0.495191
v -4.121215 -0.300437 0.825444
v -3.970979 -0.338731 0.930654
v 4.121215 -0.286244 0.786450
v 3.970979 -0.338730 0.930654
v -4.121215 0.300437 0.825444
v -3.970979 0.338730 0.930654
v 4.121215 0.286245 0.786450
v 3.970979 0.338731 0.930654
v -4.121215 0.760733 0.439210
v -3.970979 0.857695 0.495191
v 4.121215 0.724796 0.418461
v 3.970979 0.857696 0.495191
v -4.121215 0.865074 -0.152536
v -3.970979 0.975335 -0.171978
v 4.121215 0.824208 -0.145330
v 3.970979 0.975336 -0.171978
v -4.121215 0.564637 -0.672908
v -3.970979 0.636605 -0.758676
v 4.121215 0.537964 -0.641120
v 3.970979 0.636605 -0.758676
v 4.121215 0.000000 -0.960031
v 4.121215 -0.617096 -0.735427
v 4.121215 -0.945446 -0.166708
v 4.121215 -0.831411 0.480016
v 4.121215 -0.328350 0.902134
v 4.121215 0.328350 0.902134
v 4.121215 0.831412 0.480016
v 4.121215 0.945447 -0.166708
v 4.121215 0.617097 -0.735427
v 3.935980 0.000000 -0.836923
v 3.935980 -0.537963 -0.641120
v 3.935980 -0.824208 -0.145330
v 3.935980 -0.724796 0.418461
v 3.935980 -0.286244 0.786450
v 3.935980 0.286245 0.786450
v 3.935980 0.724796 0.418461
v 3.935980 0.824208 -0.145330
v 3.935980 0.537964 -0.641120
v -4.121215 -0.617097 -0.735427
v -4.121215 -0.000000 -0.960031
v -4.121215 -0.945447 -0.166708
v -4.121215 -0.831412 0.480016
v -4.121215 -0.328350 0.902134
v -4.121215 0.328350 0.902134
v -4.121215 0.831411 0.480016
v -4.121215 0.945446 -0.166708
v -4.121215 0.617096 -0.735427
v -4.005772 -0.564637 -0.672908
v -4.005772 -0.000000 -0.878419
v -4.005772 -0.865074 -0.152536
v -4.005772 -0.760733 0.439210
v -4.005772 -0.300437 0.825444
v -4.005772 0.300437 0.825444
v -4.005772 0.760733 0.439210
v -4.005772 0.865074 -0.152536
v -4.005772 0.564637 -0.672908
v -0.881575 -0.000000 -1.010878
v -0.881575 -0.649780 -0.774377
v -0.881575 0.649780 -0.774377
v -0.881575 -0.995521 -0.175537
v -0.881575 -0.875446 0.505439
v -0.881575 -0.345741 0.949915
v -0.881575 0.345740 0.949915
v -0.881575 0.875446 0.505439
v -0.881575 0.995520 -0.175537
v -2.838870 -0.570874 -0.680340
v -2.838870 -0.874629 -0.154221
v -2.838870 -0.769136 0.444061
v -2.838870 -0.303756 0.834561
v -2.838870 0.303755 0.834561
v -2.838870 0.769135 0.444061
v -2.838870 0.874628 -0.154221
v -2.838870 -0.000000 -0.888121
v -2.838870 0.570873 -0.680340
vn -0.0560 0.3415 -0.9382
vn 0.0594 -0.9831 0.1733
vn 0.0594 -0.6417 0.7647
vn 0.0594 -0.0000 0.9982
vn 0.0594 0.6417 0.7647
vn 0.0594 0.9831 0.1733
vn 0.0594 0.8645 -0.4991
vn -0.0560 -0.3415 -0.9382
vn 0.0594 -0.8645 -0.4991
vn 0.0594 0.3414 -0.9380
vn -0.0000 -0.0000 -1.0000
vn -0.0560 0.8647 -0.4992
vn -0.0560 0.9833 0.1734
vn -0.0560 0.6418 0.7648
vn -0.0560 -0.0000 0.9984
vn -0.0560 -0.6418 0.7648
vn -0.0560 -0.9833 0.1734
vn -0.0560 -0.8647 -0.4992
vn -0.0000 0.9848 -0.1736
vn -0.1865 -0.3360 -0.9232
vn 0.1865 -0.3360 -0.9232
vn -0.1865 -0.8508 -0.4912
vn 0.1865 -0.8508 -0.4912
vn -0.1865 -0.9675 0.1706
vn 0.1865 -0.9675 0.1706
vn -0.1865 -0.6315 0.7526
vn 0.1865 -0.6315 0.7526
vn -0.1865 -0.0000 0.9825
vn 0.1865 -0.0000 0.9825
vn -0.1865 0.6315 0.7526
vn 0.1865 0.6315 0.7526
vn -0.1865 0.9675 0.1706
vn 0.1865 0.9675 0.1706
vn -0.1865 0.8508 -0.4912
vn 0.1865 0.8508 -0.4912
vn -0.1865 0.3360 -0.9232
vn 0.1865 0.3360 -0.9232
vn 0.0594 -0.3414 -0.9380
vn 1.0000 -0.0000 -0.0000
vn -0.0000 0.8660 0.5000
vn -0.0000 -0.3420 0.9397
vn -0.0000 -0.6428 -0.7660
vn -0.0000 -0.9848 -0.1736
vn -0.0000 0.6428 -0.7660
vn -0.0000 0.3420 0.9397
vn -0.0000 -0.8660 0.5000
vn -1.0000 -0.0000 -0.0000
vn -0.0588 -0.3414 -0.9381
vn -0.0588 0.3414 -0.9381
vn -0.0588 -0.8645 -0.4991
vn -0.0588 0.8645 -0.4991
vn -0.0588 0.9831 0.1733
vn -0.0588 0.6417 0.7647
vn -0.0588 -0.0000 0.9983
vn -0.0588 -0.6417 0.7647
vn -0.0588 -0.9831 0.1733
vn 0.0846 -0.9813 0.1730
vn 0.0846 -0.6405 0.7633
vn 0.0846 -0.0000 0.9964
vn 0.0846 0.6405 0.7633
vn 0.0846 0.9813 0.1730
vn 0.0846 0.8629 -0.4982
vn 0.0846 -0.8629 -0.4982
vn 0.0846 0.3408 -0.9363
vn 0.0846 -0.3408 -0.9363
vt 0.111111 0.750000
vt 0.111111 0.990886
vt 0.000534 0.990886
vt 0.014659 0.750000
vt 0.777778 0.618714
vt 0.777778 0.750000
vt 0.666667 0.750000
vt 0.666667 0.618714
vt 0.555556 0.750000
vt 0.555556 0.618714
vt 0.444444 0.750000
vt 0.444444 0.618714
vt 0.333333 0.750000
vt 0.333333 0.618714
vt 0.222222 0.750000
vt 0.222222 0.618714
vt 0.111111 0.618714
vt 0.985341 0.750000
vt 0.999466 0.990886
vt 0.888889 0.990886
vt 0.888889 0.750000
vt 0.888889 0.618714
vt 0.006961 0.618714
vt 0.181301 0.061252
vt 0.318699 0.061252
vt 0.222222 0.990886
vt 0.111111 0.990886
vt 0.333333 0.990886
vt 0.222222 0.990886
vt 0.444444 0.990886
vt 0.555556 0.990886
vt 0.444445 0.990886
vt 0.666667 0.990886
vt 0.555556 0.990886
vt 0.777778 0.990886
vt 0.957618 0.286609
vt 0.932576 0.144590
vt 0.750742 0.489730
vt 0.903527 0.434121
vt 0.898103 0.426502
vt 0.750000 0.480407
vt 0.403527 0.434121
vt 0.250742 0.489730
vt 0.250000 0.480407
vt 0.398103 0.426502
vt 0.904664 0.433167
vt 0.985959 0.292359
vt 0.976907 0.290010
vt 0.485959 0.292359
vt 0.404664 0.433167
vt 0.476907 0.290010
vt 0.986217 0.290898
vt 0.957983 0.130778
vt 0.949539 0.134796
vt 0.457983 0.130778
vt 0.486217 0.290898
vt 0.449539 0.134796
vt 0.957241 0.129492
vt 0.832690 0.024981
vt 0.828804 0.033488
vt 0.332690 0.024981
vt 0.457241 0.129492
vt 0.328804 0.033488
vt 0.831295 0.024474
vt 0.668705 0.024474
vt 0.671196 0.033488
vt 0.168705 0.024474
vt 0.331295 0.024474
vt 0.171196 0.033488
vt 0.667310 0.024981
vt 0.542759 0.129492
vt 0.550461 0.134796
vt 0.042759 0.129492
vt 0.167310 0.024981
vt 0.050461 0.134796
vt 0.542017 0.130778
vt 0.513783 0.290898
vt 0.523093 0.290010
vt 0.013783 0.290898
vt 0.042017 0.130778
vt 0.023093 0.290010
vt 0.514041 0.292359
vt 0.595336 0.433167
vt 0.601897 0.426502
vt 0.095336 0.433167
vt 0.014041 0.292359
vt 0.101897 0.426502
vt 0.596473 0.434121
vt 0.749258 0.489730
vt 0.249258 0.489730
vt 0.096473 0.434121
vt 0.993039 0.618714
vt 0.250000 0.450861
vt 0.379111 0.403869
vt 0.447810 0.284879
vt 0.423951 0.149569
vt 0.076049 0.149569
vt 0.052190 0.284879
vt 0.120889 0.403869
vt 0.885513 0.411498
vt 0.750000 0.460821
vt 0.822105 0.051893
vt 0.677895 0.051893
vt 0.567424 0.144590
vt 0.542382 0.286609
vt 0.614487 0.411498
vt 0.997111 0.549276
vt 0.888889 0.549276
vt 0.111111 0.549276
vt 0.002889 0.549276
vt 0.777778 0.549276
vt 0.222222 0.549276
vt 0.333333 0.549276
vt 0.444444 0.549276
vt 0.555556 0.549276
vt 0.666667 0.549276
vt 0.777778 0.509114
vt 0.666667 0.509114
vt 0.666667 0.509114
vt 0.555556 0.509114
vt 0.555556 0.509114
vt 0.444444 0.509114
vt 0.444444 0.509114
vt 0.333333 0.509114
vt 0.222222 0.509114
vt 0.222222 0.509114
vt 0.111111 0.509114
vt 0.888889 0.509114
vt 0.000534 0.509114
vt 0.999466 0.509114
s 0
usemtl Material.001
f 9/1/1 45/2/1 13/3/1 1/4/1
f 85/5/2 3/6/2 4/7/2 86/8/2
f 86/8/3 4/7/3 5/9/3 87/10/3
f 87/10/4 5/9/4 6/11/4 88/12/4
f 88/12/5 6/11/5 7/13/5 89/14/5
f 89/14/6 7/13/6 8/15/6 90/16/6
f 90/16/7 8/15/7 9/1/7 84/17/7
f 1/18/8 13/19/8 17/20/8 2/21/8
f 83/22/9 2/21/9 3/6/9 85/5/9
f 84/17/10 9/1/10 1/4/10 82/23/10
f 32/24/11 28/25/11 59/25/11 60/24/11
f 8/15/12 41/26/12 45/27/12 9/1/12
f 7/13/13 37/28/13 41/29/13 8/15/13
f 6/11/14 33/30/14 37/28/14 7/13/14
f 5/9/15 29/31/15 33/32/15 6/11/15
f 4/7/16 25/33/16 29/34/16 5/9/16
f 3/6/17 21/35/17 25/33/17 4/7/17
f 2/21/18 17/20/18 21/35/18 3/6/18
f 18/36/19 22/37/19 76/37/19 75/36/19
f 11/38/20 15/39/20 64/40/20 65/41/20
f 17/42/21 13/43/21 46/44/21 47/45/21
f 15/46/22 19/47/22 66/48/22 64/40/22
f 21/49/23 17/50/23 47/45/23 48/51/23
f 19/52/24 23/53/24 67/54/24 66/48/24
f 25/55/25 21/56/25 48/51/25 49/57/25
f 23/58/26 27/59/26 68/60/26 67/54/26
f 29/61/27 25/62/27 49/57/27 50/63/27
f 27/64/28 31/65/28 69/66/28 68/60/28
f 33/67/29 29/68/29 50/63/29 51/69/29
f 31/70/30 35/71/30 70/72/30 69/66/30
f 37/73/31 33/74/31 51/69/31 52/75/31
f 35/76/32 39/77/32 71/78/32 70/72/32
f 41/79/33 37/80/33 52/75/33 53/81/33
f 39/82/34 43/83/34 72/84/34 71/78/34
f 45/85/35 41/86/35 53/81/35 54/87/35
f 43/88/36 11/89/36 65/41/36 72/84/36
f 13/90/37 45/91/37 54/87/37 46/44/37
f 82/92/38 1/18/38 2/21/38 83/22/38
f 12/93/39 16/94/39 47/45/39 46/44/39
f 16/94/39 20/95/39 48/51/39 47/45/39
f 20/95/39 24/96/39 49/57/39 48/51/39
f 24/96/39 28/25/39 50/63/39 49/57/39
f 28/25/39 32/24/39 51/69/39 50/63/39
f 32/24/39 36/97/39 52/75/39 51/69/39
f 36/97/39 40/98/39 53/81/39 52/75/39
f 40/98/39 44/99/39 54/87/39 53/81/39
f 44/99/39 12/93/39 46/44/39 54/87/39
f 20/95/40 16/94/40 56/94/40 57/95/40
f 12/93/41 44/99/41 63/99/41 55/93/41
f 36/97/42 32/24/42 60/24/42 61/97/42
f 24/96/19 20/95/19 57/95/19 58/96/19
f 40/98/43 36/97/43 61/97/43 62/98/43
f 28/25/44 24/96/44 58/96/44 59/25/44
f 16/94/45 12/93/45 55/93/45 56/94/45
f 44/99/46 40/98/46 62/98/46 63/99/46
f 14/100/47 10/101/47 65/41/47 64/40/47
f 18/36/47 14/100/47 64/40/47 66/48/47
f 22/37/47 18/36/47 66/48/47 67/54/47
f 26/102/47 22/37/47 67/54/47 68/60/47
f 30/103/47 26/102/47 68/60/47 69/66/47
f 34/104/47 30/103/47 69/66/47 70/72/47
f 38/105/47 34/104/47 70/72/47 71/78/47
f 42/106/47 38/105/47 71/78/47 72/84/47
f 10/101/47 42/106/47 72/84/47 65/41/47
f 34/104/43 38/105/43 80/105/43 79/104/43
f 22/37/44 26/102/44 77/102/44 76/37/44
f 10/101/45 14/100/45 73/100/45 74/101/45
f 38/105/46 42/106/46 81/106/46 80/105/46
f 26/102/11 30/103/11 78/103/11 77/102/11
f 14/100/40 18/36/40 75/36/40 73/100/40
f 42/106/41 10/101/41 74/101/41 81/106/41
f 30/103/42 34/104/42 79/104/42 78/103/42
f 98/107/48 82/92/48 83/22/48 91/108/48
f 99/109/49 84/17/49 82/23/49 98/110/49
f 91/108/50 83/22/50 85/5/50 92/111/50
f 97/112/51 90/16/51 84/17/51 99/109/51
f 96/113/52 89/14/52 90/16/52 97/112/52
f 95/114/53 88/12/53 89/14/53 96/113/53
f 94/115/54 87/10/54 88/12/54 95/114/54
f 93/116/55 86/8/55 87/10/55 94/115/55
f 92/111/56 85/5/56 86/8/56 93/116/56
f 19/117/57 92/111/57 93/116/57 23/118/57
f 23/119/58 93/116/58 94/115/58 27/120/58
f 27/121/59 94/115/59 95/114/59 31/122/59
f 31/123/60 95/114/60 96/113/60 35/124/60
f 35/124/61 96/113/61 97/112/61 39/125/61
f 39/126/62 97/112/62 99/109/62 43/127/62
f 15/128/63 91/108/63 92/111/63 19/117/63
f 43/127/64 99/109/64 98/110/64 11/129/64
f 11/130/65 98/107/65 91/108/65 15/128/65
o Cylinder.002
v 3.935980 0.000000 -0.836923
v 3.935980 -0.537963 -0.641120
v 3.935980 -0.824208 -0.145330
v 3.935980 -0.724796 0.418461
v 3.935980 -0.286244 0.786450
v 3.935980 0.286245 0.786450
v 3.935980 0.724796 0.418461
v 3.935980 0.824208 -0.145330
v 3.935980 0.537964 -0.641120
v -4.005772 -0.564637 -0.672908
v -4.005772 -0.000000 -0.878419
v -4.005772 -0.865074 -0.152536
v -4.005772 -0.760733 0.439210
v -4.005772 -0.300437 0.825444
v -4.005772 0.300437 0.825444
v -4.005772 0.760733 0.439210
v -4.005772 0.865074 -0.152536
v -4.005772 0.564637 -0.672908
vn 1.0000 -0.0000 -0.0000
vn -1.0000 -0.0000 -0.0000
vt 0.379111 0.403869
vt 0.250000 0.450861
vt 0.120889 0.403869
vt 0.052190 0.284879
vt 0.076049 0.149569
vt 0.181301 0.061252
vt 0.318699 0.061252
vt 0.423951 0.149569
vt 0.447810 0.284879
vt 0.750000 0.460821
vt 0.885513 0.411498
vt 0.957618 0.286609
vt 0.932576 0.144590
vt 0.822105 0.051893
vt 0.677895 0.051893
vt 0.567424 0.144590
vt 0.542382 0.286609
vt 0.614487 0.411498
s 0
usemtl Material.002
f 101/131/66 100/132/66 108/133/66 107/134/66 106/135/66 105/136/66 104/137/66 103/138/66 102/139/66
f 110/140/67 109/141/67 111/142/67 112/143/67 113/144/67 114/145/67 115/146/67 116/147/67 117/148/67
